<svg id="icon-children" viewBox="0 0 50 50">
  <g fill="none">
    <path d="M34.1741 19.174L29.2858 24.0624V37.857C29.2858 38.3704 29.1016 38.8113 28.7333 39.1796C28.365 39.5479 27.9241 39.732 27.4108 39.732C26.8974 39.732 26.4565 39.5479 26.0882 39.1796C25.7199 38.8113 25.5357 38.3704 25.5357 37.857V31.4285H24.4643V37.857C24.4643 38.3704 24.2802 38.8113 23.9119 39.1796C23.5436 39.5479 23.1027 39.732 22.5893 39.732C22.0759 39.732 21.6351 39.5479 21.2668 39.1796C20.8985 38.8113 20.7143 38.3704 20.7143 37.857V24.0624L15.8259 19.174C15.5134 18.8615 15.3572 18.482 15.3572 18.0356C15.3572 17.5892 15.5134 17.2097 15.8259 16.8972C16.1384 16.5847 16.5179 16.4285 16.9643 16.4285C17.4107 16.4285 17.7902 16.5847 18.1027 16.8972L21.9197 20.7142H28.0804L31.8974 16.8972C32.2099 16.5847 32.5893 16.4285 33.0358 16.4285C33.4822 16.4285 33.8616 16.5847 34.1741 16.8972C34.4866 17.2097 34.6429 17.5892 34.6429 18.0356C34.6429 18.482 34.4866 18.8615 34.1741 19.174ZM28.75 16.4285C28.75 17.4664 28.3845 18.3509 27.6535 19.0819C26.9225 19.813 26.038 20.1785 25 20.1785C23.9621 20.1785 23.0776 19.813 22.3466 19.0819C21.6155 18.3509 21.25 17.4664 21.25 16.4285C21.25 15.3905 21.6155 14.506 22.3466 13.775C23.0776 13.044 23.9621 12.6785 25 12.6785C26.038 12.6785 26.9225 13.044 27.6535 13.775C28.3845 14.506 28.75 15.3905 28.75 16.4285Z" fill="black"></path>
  </g>
</svg>
