<svg id="icon-all-object" viewBox="0 0 50 50"><g fill="none">
<g clip-path="url(#clip0_1717_1752)">
<path d="M25.0018 30.89L14.015 25.0022L18.5049 22.5937L16.4979 21.5181L10.001 25.0022L25.0018 33.0389L40.0005 25.0022L33.5036 21.5181L31.5009 22.5937L35.9887 25.0022L25.0018 30.89Z" fill="#373737"></path>
<path d="M25.0018 37.8512L14.015 31.9633L18.5049 29.5549L16.4979 28.4792L10.001 31.9633L25.0018 40.0001L40.0005 31.9633L33.5036 28.4792L31.5009 29.5549L35.9887 31.9633L25.0018 37.8512Z" fill="#373737"></path>
<path d="M25.0018 9.99951L10.001 18.0363L25.0018 26.0707L40.0005 18.034L25.0018 9.99951ZM25.0018 12.1484L35.9887 18.0363L25.0018 23.9242L14.015 18.0363L25.0018 12.1484Z" fill="#373737"></path>
</g>

</g></svg>
