<svg id="icon-museum" viewBox="0 0 50 50">
  <g fill="none">
    <path d="M15.1688 21.75H17.6162L17.9925 33H14.8431L15.1688 21.75ZM13.125 33.625H36.875V34.875H38.75V36.75H40V38H10V36.75H11.25V34.875H13.125V33.625ZM38.125 18.5075L25.0013 13L11.875 18.5075V19.25H38.125V18.5075ZM14.375 19.875H35.625V21.125H14.375V19.875ZM32.335 21.75H34.7813L35.1606 33H32.0069L32.335 21.75ZM26.615 21.75H29.0612L29.4362 33H26.2856L26.615 21.75ZM20.8938 21.75H23.3406L23.7131 33H20.5638L20.8938 21.75Z" fill="black"></path>
  </g>
</svg>
