<svg id="icon-school" viewBox="0 0 50 50">
  <g fill="none">
    <g clip-path="url(#clip0_1717_1745)">
      <path d="M14.2916 27.2209V31.3189C14.2916 32.3834 14.875 33.3751 15.8083 33.8855L23.1 37.8668C23.975 38.348 25.025 38.348 25.9 37.8668L33.1916 33.8855C34.125 33.3751 34.7083 32.3834 34.7083 31.3189V27.2209L25.9 32.0334C25.025 32.5147 23.975 32.5147 23.1 32.0334L14.2916 27.2209ZM23.1 13.1334L10.8062 19.8418C9.79995 20.3959 9.79995 21.8543 10.8062 22.4084L23.1 29.1168C23.975 29.598 25.025 29.598 25.9 29.1168L37.625 22.7147V31.3334C37.625 32.1355 38.2812 32.7918 39.0833 32.7918C39.8854 32.7918 40.5416 32.1355 40.5416 31.3334V21.9855C40.5416 21.4459 40.25 20.9647 39.7833 20.7022L25.9 13.1334C25.025 12.6668 23.975 12.6668 23.1 13.1334Z" fill="black"></path>
    </g>

  </g>
</svg>
