<svg id="icon-dino-pin" viewBox="0 0 90 109">
  <g fill="none">
    <path d="M45.1491 51.0793L73.7583 79.6886L45.1491 108.298L16.5398 79.6886L45.1491 51.0793Z" fill="#798FFF"></path>
    <circle cx="45" cy="45.1191" r="45" fill="#798FFF"></circle>
    <g clip-path="url(#clip0_1701_1786)">
      <g opacity="0.3">
        <path opacity="0.3" d="M56.7446 32.6108C57.4642 32.6108 58.0475 29.1834 58.0475 24.9556C58.0475 20.7277 57.4642 17.3003 56.7446 17.3003C56.025 17.3003 55.4417 20.7277 55.4417 24.9556C55.4417 29.1834 56.025 32.6108 56.7446 32.6108Z" fill="#B0BBFF"></path>
      </g>
      <g opacity="0.5">
        <path opacity="0.5" d="M55.9001 22.5771L57.4622 28.931L57.3981 29.4792L57.2988 30.4269L55.8369 24.9952L55.821 23.4817L55.9001 22.5771Z" fill="white"></path>
      </g>
      <g opacity="0.5">
        <path opacity="0.5" d="M56.307 18.1477L57.653 21.597L57.6723 22.0281L57.5546 23.0374L55.9863 19.3901L56.0267 18.7469L56.307 18.1477Z" fill="white"></path>
      </g>
      <path d="M56.7444 33.0068C56.14 33.0068 55.7359 32.2148 55.4327 30.4356C55.1832 28.9679 55.0461 27.0224 55.0461 24.9555C55.0461 22.8886 55.1832 20.9431 55.4327 19.4763C55.7359 17.6971 56.14 16.9043 56.7444 16.9043C57.3489 16.9043 57.753 17.6962 58.0553 19.4763C58.3056 20.9431 58.4427 22.8895 58.4427 24.9555C58.4427 27.0216 58.3056 28.9679 58.0553 30.4356C57.753 32.2139 57.348 33.0068 56.7444 33.0068ZM56.7444 17.7552C56.4 18.2479 55.8369 20.6633 55.8369 24.9555C55.8369 29.2478 56.4 31.6631 56.7444 32.1559C57.0888 31.6631 57.652 29.2478 57.652 24.9555C57.652 20.6633 57.0888 18.2479 56.7444 17.7552V17.7552Z" fill="#172991"></path>
      <path d="M76.2269 24.6423V35.3403L74.2853 38.5397C74.2074 38.6494 74.1165 38.7493 74.0147 38.8371L70.764 41.5006L69.7202 42.5979C69.3483 42.9887 68.8971 43.2951 68.397 43.4965C67.8969 43.6979 67.3595 43.7896 66.8209 43.7655L59.4348 43.8738L55.8089 45.8201L51.1982 55.9022L41.6692 66.0687L39.992 72.8274H32.6647L35.1976 62.8007C35.2267 62.6813 35.2157 62.5555 35.1664 62.4429C35.117 62.3303 35.0319 62.2371 34.9243 62.1778C34.5773 61.9833 34.3884 61.6815 33.8876 61.6445C30.4753 61.3973 26.5419 60.454 23.3606 59.208C20.3023 58.0105 17.6182 56.0025 14.7892 54.2805C14.5872 53.0486 14.3848 51.8168 14.1821 50.5849C17.6876 50.5849 21.1571 50.9368 24.6626 50.9368C27.1762 50.9368 29.725 50.5981 32.2386 50.6007L39.6599 43.6327L39.572 31.7811C39.5641 30.697 39.63 29.84 40.4102 27.3129L41.757 24.637C42.987 22.5428 45.5349 21.1675 47.958 21.0391H58.6212L76.2269 24.6423Z" fill="white"></path>
      <path d="M40.5076 73.4874H31.8184L34.542 62.7173C34.4355 62.6507 34.3328 62.5781 34.2345 62.4999C34.05 62.3591 33.985 62.3134 33.8435 62.3028C30.4707 62.0582 26.4635 61.1308 23.125 59.8232C20.8134 58.9178 18.7014 57.5557 16.6578 56.2393C15.9374 55.7747 15.1915 55.2934 14.4509 54.842L14.1925 54.6845L13.4106 49.925H14.1873C15.9559 49.925 17.7376 50.013 19.4587 50.101C21.1649 50.189 22.9291 50.277 24.6651 50.277H24.6933C25.9233 50.277 27.1849 50.189 28.4087 50.1107C29.5781 50.0315 30.7809 49.9514 31.9792 49.9418L39.0016 43.3494L38.9138 31.7865C38.9059 30.6919 38.9612 29.775 39.7809 27.1229L39.7967 27.0701L41.184 24.3072C42.4764 22.1074 45.1824 20.5297 47.9183 20.3845H58.6843L76.8875 24.1039V35.5252L74.8237 38.9226C74.7153 39.0755 74.5887 39.2147 74.4468 39.337L74.4344 39.3476L71.218 41.9873L70.2006 43.0494C69.7661 43.5063 69.2391 43.8651 68.6551 44.1018C68.071 44.3385 67.4433 44.4477 66.8137 44.4221L59.6095 44.5276L56.3209 46.2936L51.7541 56.2745L42.2656 66.3935L40.5076 73.4874ZM33.5115 72.1675H39.4769L41.0716 65.7442L50.648 55.531L55.3045 45.346L59.2659 43.2183L66.8331 43.1066H66.8524C67.297 43.1269 67.7409 43.0514 68.1539 42.8852C68.5669 42.719 68.9395 42.4659 69.2465 42.1431L70.3183 41.0168L73.5902 38.333C73.6441 38.2858 73.693 38.233 73.736 38.1755L75.5678 35.1565V25.1809L58.5499 21.7035H47.971C45.6717 21.8311 43.4095 23.136 42.3314 24.9592L41.0188 27.5629C40.2685 30.002 40.2193 30.7842 40.2281 31.7777L40.323 43.9205L32.5037 51.2643H32.2147C30.9847 51.2643 29.723 51.3523 28.4992 51.4306C27.2437 51.5186 25.9443 51.6066 24.6668 51.6004C22.8983 51.6004 21.1174 51.5124 19.3954 51.4244C17.9431 51.3514 16.4487 51.2757 14.9656 51.2537L15.3962 53.875C16.0639 54.2868 16.7281 54.7153 17.373 55.1315C19.3612 56.4127 21.4144 57.7378 23.6108 58.5957C26.8334 59.8584 30.6974 60.7524 33.9446 60.9882C34.4858 61.0278 34.8074 61.2742 35.042 61.4537C35.1097 61.5086 35.181 61.5588 35.2554 61.6042C35.4892 61.7347 35.6736 61.9386 35.7803 62.1844C35.8869 62.4302 35.9099 62.7043 35.8458 62.9645L33.5115 72.1675Z" fill="black"></path>
      <path d="M41.5883 50.3676C42.886 49.9039 44.3848 50.0377 45.2854 50.1996C47.676 50.629 48.4421 51.7834 48.8699 52.219C49.2622 52.6307 49.607 53.0852 49.8979 53.5741C50.6086 54.7135 50.9275 55.106 51.1999 56.3018C51.351 56.9679 51.9598 57.4114 51.727 59.48C51.3439 62.8237 50.7518 63.8101 50.0525 66.266L55.2053 66.2563C56.915 66.3399 58.8074 66.5141 59.4804 69.3993C59.5283 69.6079 59.552 69.8214 59.5508 70.0355V73.0607L39.9955 72.8275L41.9634 65.7512L34.9243 62.1743" fill="white"></path>
      <path d="M60.206 73.7285L39.1273 73.4769L41.1831 66.1032L34.6255 62.7709L35.2264 61.5892L42.747 65.4116L40.8572 72.1746L58.8882 72.3893V70.0355C58.8893 69.8724 58.8716 69.7097 58.8354 69.5507C58.2951 67.2453 57.0396 67.0077 55.1858 66.9162L49.1755 66.9277L49.4154 66.0847C49.6113 65.3948 49.7967 64.8291 49.975 64.2826C50.4354 62.8748 50.7991 61.7599 51.0679 59.4053C51.2225 58.0564 50.9915 57.5381 50.7877 57.0814C50.6895 56.879 50.6123 56.667 50.5575 56.4487C50.344 55.5143 50.1244 55.1658 49.5911 54.3255C49.5129 54.2014 49.4285 54.0686 49.3381 53.9234L49.3143 53.8856C49.0538 53.4513 48.7466 53.0471 48.398 52.6801C48.3373 52.6185 48.2758 52.5507 48.2117 52.4777C47.7786 51.9955 47.0547 51.1877 45.1684 50.849C44.4304 50.717 43.0123 50.5586 41.8095 50.9889L41.3659 49.7456C42.8594 49.2176 44.534 49.3936 45.4003 49.5502C47.7329 49.969 48.6826 51.0276 49.1922 51.596C49.2467 51.6576 49.295 51.7113 49.3398 51.757C49.7559 52.1919 50.1225 52.6718 50.4328 53.1878L50.4556 53.2247C50.5434 53.3664 50.6269 53.4966 50.7042 53.6189C51.2489 54.4795 51.5784 54.9995 51.8411 56.1557C51.879 56.289 51.9286 56.4185 51.9896 56.5429C52.2356 57.0937 52.5721 57.8478 52.377 59.5548C52.0924 62.0432 51.6909 63.2716 51.227 64.6927C51.1312 64.9866 51.0337 65.2849 50.9336 65.6043L55.2157 65.5963H55.2324C56.8551 65.6755 59.3072 65.7943 60.1172 69.248C60.1765 69.506 60.206 69.7699 60.2051 70.0346L60.206 73.7285Z" fill="black"></path>
      <path d="M52.8936 43.7224L55.0409 47.506L60.8096 47.5324L63.5085 47.6565C65.0258 47.8413 66.4403 47.7947 67.2108 50.1572C67.3145 50.4766 67.5227 51.4973 67.3628 51.683C65.4177 53.9356 65.2754 53.647 64.6753 53.6505L62.1818 52.7477C61.6127 52.5379 61.0141 52.4191 60.408 52.3957C59.3828 52.362 58.3576 52.4668 57.3602 52.7072L56.1803 52.9923L52.0071 52.0288L48.3584 47.1778" fill="white"></path>
      <path d="M64.9671 54.3122C64.9197 54.3122 64.8713 54.3122 64.8213 54.3122C64.7712 54.3122 64.7273 54.307 64.679 54.3078H64.5612L61.958 53.3654C61.4541 53.1791 60.9239 53.0737 60.3871 53.0531C59.421 53.0213 58.455 53.1199 57.5151 53.3461L56.1841 53.6664L51.6287 52.6193L47.835 47.5756L48.8892 46.7837L52.3939 51.4419L56.1788 52.3122L57.2085 52.064C58.2634 51.8104 59.3476 51.7 60.4319 51.7358C61.1069 51.761 61.7738 51.8925 62.4078 52.1256L64.7984 52.9915L64.8863 52.9959C65.0708 53.0056 65.0901 53.0064 65.2562 52.8903C65.5646 52.6756 66.0574 52.1767 66.7612 51.3672C66.7382 51.0266 66.6793 50.6895 66.5854 50.3614C66.01 48.5963 65.1332 48.4995 63.8065 48.3534L63.4551 48.3138L60.793 48.1889L54.6563 48.1607L52.3201 44.0489L53.4622 43.396L55.4223 46.8444L60.837 46.8699L63.5852 46.9975C63.7064 47.0124 63.8267 47.0256 63.9462 47.0388C65.3748 47.1964 66.994 47.3741 67.8339 49.9487C67.924 50.2517 67.991 50.5612 68.0342 50.8744C68.1221 51.5044 68.0729 51.8625 67.8585 52.1107C66.2692 53.9603 65.7306 54.3122 64.9671 54.3122Z" fill="black"></path>
      <path d="M69.9011 30.3997L69.1016 28.6178L59.0745 25.9772L59.4101 24.7004L70.0452 27.5012L71.103 29.8585L69.9011 30.3997Z" fill="black"></path>
      <path d="M69.605 42.2504L67.7565 38.0321L63.0122 40.737L61.2893 35.8922L55.7614 34.8697L53.6721 32.7368L54.6131 31.812L56.4106 33.6475L62.276 34.7325L63.7265 38.8109L68.3759 36.1614L70.8122 41.7207L69.605 42.2504Z" fill="black"></path>
      <path d="M56.5942 41.1046L55.4363 34.3706L56.7357 34.1462L57.4772 38.4613L61.3306 34.8308L62.2338 35.7926L56.5942 41.1046Z" fill="black"></path>
      <path d="M51.2376 30.8186C50.0527 30.8172 48.9167 30.3452 48.0789 29.506C47.241 28.6669 46.7697 27.5292 46.7683 26.3425C46.7693 25.3037 47.1304 24.2976 47.7901 23.496L48.0132 23.2258L54.9944 23.9051L55.1569 24.2333C55.3229 24.5686 55.7095 25.4459 55.7095 26.3451C55.7074 27.5318 55.2355 28.6693 54.3971 29.5079C53.5588 30.3466 52.4225 30.8179 51.2376 30.8186V30.8186ZM48.6019 24.6073C48.2639 25.1227 48.0837 25.7258 48.0835 26.3425C48.0844 27.1798 48.4171 27.9824 49.0085 28.5742C49.5999 29.166 50.4016 29.4985 51.2376 29.4987C52.0731 29.4978 52.8741 29.165 53.4649 28.5733C54.0557 27.9816 54.3881 27.1793 54.3891 26.3425C54.3699 25.9308 54.2773 25.5258 54.1158 25.1467L48.6019 24.6073Z" fill="black"></path>
      <path d="M53.0396 28.5509C54.1493 28.5509 55.0489 27.6499 55.0489 26.5385C55.0489 25.4271 54.1493 24.5261 53.0396 24.5261C51.9299 24.5261 51.0303 25.4271 51.0303 26.5385C51.0303 27.6499 51.9299 28.5509 53.0396 28.5509Z" fill="black"></path>
      <g opacity="0.3">
        <path opacity="0.3" d="M55.3371 31.9175C56.0567 31.9175 56.64 28.4901 56.64 24.2622C56.64 20.0343 56.0567 16.6069 55.3371 16.6069C54.6175 16.6069 54.0342 20.0343 54.0342 24.2622C54.0342 28.4901 54.6175 31.9175 55.3371 31.9175Z" fill="#9FAFFF"></path>
      </g>
      <path d="M55.3372 32.3144C54.7327 32.3144 54.3285 31.5224 54.0254 29.7433C53.7759 28.2756 53.6379 26.3301 53.6379 24.2631C53.6379 22.1962 53.7759 20.2507 54.0254 18.7839C54.3285 17.0038 54.731 16.2119 55.3372 16.2119C55.9434 16.2119 56.3458 17.0038 56.648 18.7839C56.8984 20.2507 57.0355 22.1971 57.0355 24.2631C57.0355 26.3292 56.8984 28.2756 56.648 29.7433C56.3458 31.5224 55.9407 32.3144 55.3372 32.3144ZM55.3372 17.0637C54.9928 17.5564 54.4287 19.9674 54.4287 24.2631C54.4287 28.5589 54.9928 30.9707 55.3372 31.4635C55.6807 30.9707 56.2447 28.5598 56.2447 24.2631C56.2447 19.9665 55.6807 17.5555 55.3372 17.0628V17.0637Z" fill="#172991"></path>
      <path d="M38.7137 29.1211L37.9651 28.865L38.9166 26.0713C39.0159 25.78 39.1983 25.5243 39.4413 25.3358C39.6843 25.1473 39.9772 25.0344 40.2836 25.011L53.8769 23.9463L53.9385 24.7382L40.3451 25.8029C40.1929 25.8149 40.0476 25.8713 39.927 25.9651C39.8065 26.0589 39.7161 26.1861 39.6669 26.3309L38.7137 29.1211Z" fill="#172991"></path>
    </g>

  </g>
</svg>
