<svg id="icon-park" viewBox="0 0 50 50">
  <g fill="none">
    <g clip-path="url(#clip0_1717_1749)">
      <path d="M44.0875 17.7188C43.9813 15.3938 42.0437 14.4125 40.8 14.1625C40.475 13.0188 39.8688 12.2313 39 11.8188C37.6375 11.1688 36.0437 11.6688 35.4187 11.9188C34.925 11.5313 33.6875 10.7125 32.2375 10.925C31.1 11.0938 30.1125 11.8438 29.2937 13.1563C28.0437 13.0875 25.9813 13.5563 25.3375 15.7375C23.8375 16.6125 23.0187 17.65 22.9125 18.825C22.7625 20.4313 23.9937 21.7375 24.425 22.1375C24.575 23.7063 25.15 24.7938 26.1313 25.375C27.5875 26.2375 29.4688 25.675 30.15 25.4125C30.8813 26.0188 31.5875 26.35 32.2563 26.3938V37.05L31.1125 38.3813C31.0062 38.5063 30.975 38.6938 31.05 38.8438C31.125 39 31.275 39.1 31.45 39.1H36.6062C36.7812 39.1 36.9437 38.9938 37.0062 38.8313C37.075 38.6625 37.0375 38.475 36.9125 38.3563L35.5625 37.0063V25.925C36.7938 26.1 37.5875 25.4063 37.9813 24.7813C40 25.475 41.6 25.425 42.7437 24.6313C44.15 23.65 44.3625 21.8625 44.3937 21.2875C44.825 20.7875 45.0313 20.2375 45.0063 19.65C44.9625 18.7375 44.3688 18.0125 44.0875 17.7188ZM24.0813 28.2563C24.0813 28.0188 23.8875 27.8188 23.6437 27.8188C23.4125 27.8188 23.225 28 23.2125 28.2313H23.2062V28.2563V29.1063H6.725V28.2563C6.725 28.0188 6.53125 27.8188 6.2875 27.8188C6.04375 27.8188 5.85 28.0125 5.85 28.2563V33.85H5V36.1063H5.85V38.4313C5.85 38.6688 6.04375 38.8688 6.2875 38.8688C6.53125 38.8688 6.725 38.675 6.725 38.4313V36.1063H23.2062V38.4313C23.2062 38.6688 23.4 38.8688 23.6437 38.8688C23.8812 38.8688 24.0813 38.675 24.0813 38.4313V36.1063H24.9312V33.85H24.0813V28.2563ZM23.2062 33.85H6.725V32.975H23.2062V33.85ZM23.2062 31.4313V31.8688H6.725V30.9938H23.2062V31.4313Z" fill="black"></path>
    </g>

  </g>
</svg>
