<svg xmlns="http://www.w3.org/2000/svg" xmlns:xlink="http://www.w3.org/1999/xlink"><symbol id="icon-close" viewBox="0 0 20 20"><g fill="none"><path d="M.293 18.291a1 1 0 101.414 1.414L10 11.413l8.292 8.292a1 1 0 101.414-1.414l-8.292-8.292 8.292-8.292A1 1 0 1018.291.293L9.999 8.585 1.707.293A1 1 0 10.293 1.707L8.585 10 .293 18.291z"/></g></symbol><symbol id="logo" viewBox="0 0 362 67">
  <g fill="none">
    <path d="M9.23295 2.54544V52H0.49147V2.54544H9.23295Z" fill="currentColor"/>
    <path d="M18.3219 52V14.9091H27.0634V52H18.3219ZM22.7168 9.64487C21.3324 9.64487 20.1411 9.18607 19.143 8.26845C18.1449 7.33474 17.6458 6.21589 17.6458 4.91192C17.6458 3.59184 18.1449 2.473 19.143 1.55538C20.1411 0.621671 21.3324 0.154816 22.7168 0.154816C24.1174 0.154816 25.3087 0.621671 26.2907 1.55538C27.2888 2.473 27.7878 3.59184 27.7878 4.91192C27.7878 6.21589 27.2888 7.33474 26.2907 8.26845C25.3087 9.18607 24.1174 9.64487 22.7168 9.64487Z" fill="currentColor"/>
    <path d="M52.2831 66.6818C49.1439 66.6818 46.4474 66.2552 44.1936 65.402C41.9398 64.5649 40.1287 63.438 38.7604 62.0213C37.392 60.6046 36.4422 59.035 35.9109 57.3125L43.7831 55.4048C44.1373 56.1292 44.6524 56.8456 45.3285 57.554C46.0047 58.2784 46.9142 58.874 48.0572 59.3409C49.2163 59.8239 50.6732 60.0653 52.428 60.0653C54.9071 60.0653 56.9597 59.4616 58.5856 58.2542C60.2116 57.063 61.0246 55.0989 61.0246 52.3622V45.3352H60.5899C60.1392 46.2367 59.4791 47.1624 58.6098 48.1122C57.7566 49.062 56.6216 49.8589 55.205 50.5028C53.8044 51.1468 52.0416 51.4687 49.9166 51.4687C47.0672 51.4687 44.4834 50.8007 42.1652 49.4645C39.8631 48.1122 38.0279 46.0999 36.6595 43.4275C35.3072 40.7391 34.6311 37.3745 34.6311 33.3338C34.6311 29.2609 35.3072 25.8239 36.6595 23.0227C38.0279 20.2055 39.8712 18.0724 42.1893 16.6236C44.5075 15.1586 47.0913 14.4261 49.9408 14.4261C52.1141 14.4261 53.901 14.7964 55.3016 15.5369C56.7182 16.2613 57.8451 17.1387 58.6822 18.169C59.5194 19.1832 60.1552 20.1411 60.5899 21.0426H61.0729V14.9091H69.6936V52.6037C69.6936 55.7751 68.937 58.3991 67.4237 60.4758C65.9105 62.5525 63.8418 64.106 61.2178 65.1364C58.5937 66.1667 55.6155 66.6818 52.2831 66.6818ZM52.3555 44.6108C54.2069 44.6108 55.7845 44.16 57.0885 43.2585C58.3925 42.357 59.3825 41.0611 60.0587 39.3707C60.7348 37.6804 61.0729 35.652 61.0729 33.2855C61.0729 30.9512 60.7348 28.9067 60.0587 27.152C59.3986 25.3972 58.4166 24.0369 57.1126 23.071C55.8248 22.089 54.2391 21.598 52.3555 21.598C50.4076 21.598 48.7817 22.1051 47.4777 23.1193C46.1737 24.1335 45.1917 25.526 44.5317 27.2969C43.8716 29.0516 43.5416 31.0478 43.5416 33.2855C43.5416 35.5554 43.8716 37.5435 44.5317 39.25C45.2078 40.9403 46.1979 42.2604 47.5018 43.2102C48.8219 44.1439 50.4398 44.6108 52.3555 44.6108Z" fill="currentColor"/>
    <path d="M89.4257 52.7486C87.0753 52.7486 84.9584 52.33 83.0749 51.4929C81.2074 50.6397 79.7264 49.384 78.6317 47.7258C77.5531 46.0677 77.0138 44.0232 77.0138 41.5923C77.0138 39.4995 77.4001 37.7689 78.1729 36.4006C78.9456 35.0322 80 33.9375 81.3362 33.1165C82.6724 32.2954 84.1776 31.6757 85.8518 31.2571C87.5422 30.8224 89.2889 30.5085 91.0919 30.3153C93.2652 30.0899 95.028 29.8887 96.3802 29.7116C97.7325 29.5185 98.7145 29.2287 99.3263 28.8423C99.9541 28.4399 100.268 27.8201 100.268 26.9829V26.8381C100.268 25.0189 99.7287 23.6103 98.6501 22.6122C97.5715 21.6141 96.018 21.115 93.9896 21.115C91.8485 21.115 90.1501 21.5819 88.8945 22.5156C87.6549 23.4493 86.8178 24.5521 86.3831 25.8239L78.2212 24.6648C78.8651 22.411 79.9276 20.5274 81.4087 19.0142C82.8897 17.4848 84.7008 16.3418 86.8419 15.5852C88.983 14.8125 91.3495 14.4261 93.9413 14.4261C95.7283 14.4261 97.5071 14.6354 99.278 15.054C101.049 15.4725 102.667 16.1648 104.132 17.1307C105.597 18.0805 106.772 19.3764 107.657 21.0185C108.559 22.6605 109.01 24.7131 109.01 27.1761V52H100.606V46.9048H100.316C99.7851 47.9351 99.0365 48.901 98.0706 49.8025C97.1208 50.688 95.9214 51.4043 94.4726 51.9517C93.0398 52.4829 91.3575 52.7486 89.4257 52.7486ZM91.6956 46.3253C93.4503 46.3253 94.9716 45.9792 96.2595 45.2869C97.5474 44.5786 98.5374 43.6449 99.2297 42.4858C99.938 41.3267 100.292 40.063 100.292 38.6946V34.3239C100.019 34.5492 99.5517 34.7585 98.8916 34.9517C98.2477 35.1449 97.5232 35.3139 96.7183 35.4588C95.9134 35.6037 95.1165 35.7325 94.3277 35.8452C93.5389 35.9578 92.8547 36.0544 92.2751 36.1349C90.9712 36.312 89.804 36.6018 88.7737 37.0042C87.7434 37.4067 86.9304 37.9702 86.3348 38.6946C85.7392 39.4029 85.4413 40.3205 85.4413 41.4474C85.4413 43.0573 86.0289 44.2727 87.2041 45.0937C88.3793 45.9148 89.8765 46.3253 91.6956 46.3253Z" fill="currentColor"/>
    <path d="M128.573 52.7486C126.222 52.7486 124.105 52.33 122.222 51.4929C120.354 50.6397 118.873 49.384 117.779 47.7258C116.7 46.0677 116.161 44.0232 116.161 41.5923C116.161 39.4995 116.547 37.7689 117.32 36.4006C118.092 35.0322 119.147 33.9375 120.483 33.1165C121.819 32.2954 123.324 31.6757 124.999 31.2571C126.689 30.8224 128.436 30.5085 130.239 30.3153C132.412 30.0899 134.175 29.8887 135.527 29.7116C136.879 29.5185 137.861 29.2287 138.473 28.8423C139.101 28.4399 139.415 27.8201 139.415 26.9829V26.8381C139.415 25.0189 138.876 23.6103 137.797 22.6122C136.718 21.6141 135.165 21.115 133.137 21.115C130.995 21.115 129.297 21.5819 128.041 22.5156C126.802 23.4493 125.965 24.5521 125.53 25.8239L117.368 24.6648C118.012 22.411 119.074 20.5274 120.556 19.0142C122.037 17.4848 123.848 16.3418 125.989 15.5852C128.13 14.8125 130.496 14.4261 133.088 14.4261C134.875 14.4261 136.654 14.6354 138.425 15.054C140.196 15.4725 141.814 16.1648 143.279 17.1307C144.744 18.0805 145.919 19.3764 146.804 21.0185C147.706 22.6605 148.156 24.7131 148.156 27.1761V52H139.753V46.9048H139.463C138.932 47.9351 138.183 48.901 137.217 49.8025C136.268 50.688 135.068 51.4043 133.619 51.9517C132.187 52.4829 130.504 52.7486 128.573 52.7486ZM130.842 46.3253C132.597 46.3253 134.119 45.9792 135.406 45.2869C136.694 44.5786 137.684 43.6449 138.377 42.4858C139.085 41.3267 139.439 40.063 139.439 38.6946V34.3239C139.165 34.5492 138.699 34.7585 138.038 34.9517C137.395 35.1449 136.67 35.3139 135.865 35.4588C135.06 35.6037 134.263 35.7325 133.475 35.8452C132.686 35.9578 132.002 36.0544 131.422 36.1349C130.118 36.312 128.951 36.6018 127.921 37.0042C126.89 37.4067 126.077 37.9702 125.482 38.6946C124.886 39.4029 124.588 40.3205 124.588 41.4474C124.588 43.0573 125.176 44.2727 126.351 45.0937C127.526 45.9148 129.023 46.3253 130.842 46.3253Z" fill="currentColor"/>
    <path d="M162.431 52.5312C160.966 52.5312 159.71 52.0161 158.664 50.9858C157.618 49.9555 157.103 48.6998 157.119 47.2187C157.103 45.7699 157.618 44.5303 158.664 43.5C159.71 42.4697 160.966 41.9545 162.431 41.9545C163.848 41.9545 165.079 42.4697 166.126 43.5C167.188 44.5303 167.728 45.7699 167.744 47.2187C167.728 48.2007 167.47 49.0942 166.971 49.8991C166.488 50.7041 165.844 51.348 165.039 51.831C164.25 52.2978 163.381 52.5312 162.431 52.5312Z" fill="currentColor"/>
    <path d="M176.869 52V14.9091H185.61V52H176.869ZM181.264 9.64487C179.879 9.64487 178.688 9.18607 177.69 8.26845C176.692 7.33474 176.193 6.21589 176.193 4.91192C176.193 3.59184 176.692 2.473 177.69 1.55538C178.688 0.621671 179.879 0.154816 181.264 0.154816C182.664 0.154816 183.856 0.621671 184.838 1.55538C185.836 2.473 186.335 3.59184 186.335 4.91192C186.335 6.21589 185.836 7.33474 184.838 8.26845C183.856 9.18607 182.664 9.64487 181.264 9.64487Z" fill="currentColor"/>
    <path d="M203.441 30.267V52H194.699V14.9091H203.054V21.2116H203.489C204.342 19.1349 205.703 17.4848 207.57 16.2614C209.454 15.0379 211.78 14.4261 214.549 14.4261C217.108 14.4261 219.338 14.9735 221.238 16.0682C223.153 17.1629 224.634 18.7486 225.681 20.8253C226.743 22.902 227.267 25.4214 227.25 28.3835V52H218.509V29.7358C218.509 27.2566 217.865 25.3167 216.577 23.9162C215.305 22.5156 213.543 21.8153 211.289 21.8153C209.759 21.8153 208.399 22.1534 207.208 22.8295C206.033 23.4896 205.107 24.4474 204.431 25.7031C203.771 26.9588 203.441 28.4801 203.441 30.267Z" fill="currentColor"/>
    <path d="M254.758 14.9091V21.6704H233.436V14.9091H254.758ZM238.7 6.02271H247.441V40.8437C247.441 42.0189 247.618 42.9204 247.973 43.5483C248.343 44.16 248.826 44.5786 249.421 44.804C250.017 45.0293 250.677 45.142 251.402 45.142C251.949 45.142 252.448 45.1018 252.899 45.0213C253.366 44.9408 253.72 44.8684 253.961 44.804L255.434 51.6378C254.967 51.7988 254.299 51.9758 253.43 52.169C252.577 52.3622 251.53 52.4749 250.291 52.5071C248.101 52.5715 246.129 52.2415 244.375 51.517C242.62 50.7765 241.227 49.6335 240.197 48.0881C239.183 46.5426 238.684 44.6108 238.7 42.2926V6.02271Z" fill="currentColor"/>
    <path d="M278.191 52.7244C274.472 52.7244 271.26 51.9517 268.556 50.4062C265.867 48.8447 263.799 46.6392 262.35 43.7898C260.901 40.9242 260.177 37.5516 260.177 33.6719C260.177 29.8565 260.901 26.508 262.35 23.6264C263.815 20.7287 265.859 18.4749 268.483 16.865C271.107 15.2391 274.19 14.4261 277.732 14.4261C280.018 14.4261 282.175 14.7964 284.204 15.5369C286.248 16.2613 288.051 17.3882 289.613 18.9176C291.19 20.447 292.43 22.3949 293.331 24.7614C294.233 27.1117 294.684 29.9129 294.684 33.1648V35.8452H264.282V29.9531H286.304C286.288 28.2789 285.926 26.7898 285.218 25.4858C284.509 24.1657 283.519 23.1274 282.248 22.3707C280.992 21.6141 279.527 21.2358 277.853 21.2358C276.066 21.2358 274.496 21.6704 273.144 22.5398C271.792 23.393 270.737 24.5199 269.981 25.9204C269.24 27.3049 268.862 28.8262 268.846 30.4844V35.6278C268.846 37.785 269.24 39.6363 270.029 41.1818C270.818 42.7112 271.92 43.8864 273.337 44.7074C274.754 45.5123 276.412 45.9148 278.312 45.9148C279.583 45.9148 280.734 45.7377 281.765 45.3835C282.795 45.0132 283.688 44.4739 284.445 43.7656C285.202 43.0573 285.773 42.1799 286.16 41.1335L294.322 42.0511C293.806 44.2083 292.824 46.0918 291.375 47.7017C289.943 49.2954 288.107 50.535 285.87 51.4204C283.632 52.2898 281.072 52.7244 278.191 52.7244Z" fill="currentColor"/>
    <path d="M302.179 52V14.9091H310.655V21.0909H311.041C311.717 18.9498 312.876 17.2997 314.518 16.1406C316.177 14.9654 318.068 14.3778 320.193 14.3778C320.676 14.3778 321.215 14.402 321.811 14.4503C322.423 14.4825 322.93 14.5388 323.332 14.6193V22.6605C322.962 22.5317 322.375 22.419 321.57 22.3224C320.781 22.2097 320.016 22.1534 319.276 22.1534C317.682 22.1534 316.249 22.4995 314.977 23.1917C313.722 23.8679 312.732 24.8096 312.007 26.017C311.283 27.2244 310.92 28.6169 310.92 30.1946V52H302.179Z" fill="currentColor"/>
    <path d="M337.981 30.267V52H329.24V14.9091H337.595V21.2116H338.03C338.883 19.1349 340.243 17.4848 342.111 16.2614C343.994 15.0379 346.32 14.4261 349.089 14.4261C351.649 14.4261 353.879 14.9735 355.778 16.0682C357.694 17.1629 359.175 18.7486 360.221 20.8253C361.284 22.902 361.807 25.4214 361.791 28.3835V52H353.05V29.7358C353.05 27.2566 352.406 25.3167 351.118 23.9162C349.846 22.5156 348.083 21.8153 345.829 21.8153C344.3 21.8153 342.94 22.1534 341.748 22.8295C340.573 23.4896 339.648 24.4474 338.971 25.7031C338.311 26.9588 337.981 28.4801 337.981 30.267Z" fill="currentColor"/>
  </g>
</symbol></svg>